<?xml version="1.0" encoding="UTF-8" standalone="no"?>
<!DOCTYPE svg PUBLIC "-//W3C//DTD SVG 1.1//EN" "http://www.w3.org/Graphics/SVG/1.1/DTD/svg11.dtd">
<svg width="100%" height="100%" viewBox="0 0 48 48" version="1.1" xmlns="http://www.w3.org/2000/svg" xmlns:xlink="http://www.w3.org/1999/xlink" xml:space="preserve" xmlns:serif="http://www.serif.com/" style="fill-rule:evenodd;clip-rule:evenodd;stroke-linejoin:round;stroke-miterlimit:2;">
    <g transform="matrix(0.06,0,0,0.06,0,0)">
        <path d="M402.266,153.984C402.266,145.781 395.547,139.063 387.344,139.063L202.969,139.063C194.766,139.063 188.047,145.781 188.047,153.984L188.047,207.188C188.047,215.391 194.766,222.109 202.969,222.109L387.344,222.109C395.547,222.109 402.266,215.391 402.266,207.188L402.266,153.984Z" style="fill:rgb(164,169,173);fill-rule:nonzero;"/>
    </g>
    <g transform="matrix(0.06,0,0,0.06,0,0)">
        <rect x="188.047" y="176.563" width="214.141" height="13.281" style="fill:none;fill-rule:nonzero;"/>
    </g>
    <g transform="matrix(0.06,0,0,0.06,0,0)">
        <rect x="112.188" y="222.109" width="384.609" height="451.406" style="fill:rgb(255,184,25);fill-rule:nonzero;"/>
    </g>
    <g transform="matrix(0.06,0,0,0.06,0,0)">
        <path d="M112.188,428.906L190.781,428.906L190.781,466.719L112.188,466.719L112.188,428.906ZM386.484,525.781L465.078,525.781L465.078,563.594L386.484,563.594L386.484,525.781ZM288.672,254.375L367.266,254.375L367.266,292.188L288.672,292.188L288.672,254.375ZM347.188,384.297L425.781,384.297L425.781,422.109L347.188,422.109L347.188,384.297ZM144.766,283.359L223.359,283.359L223.359,321.172L144.766,321.172L144.766,283.359ZM140.234,608.047L218.828,608.047L218.828,645.859L140.234,645.859L140.234,608.047ZM192.891,498.828L271.484,498.828L271.484,536.641L192.891,536.641L192.891,498.828Z" style="fill:none;fill-rule:nonzero;"/>
    </g>
    <g transform="matrix(0.06,0,0,0.06,0,0)">
        <path d="M362.734,506.563C362.734,469.219 332.5,438.984 295.156,438.984C257.813,438.984 227.578,469.219 227.578,506.563L227.578,623.672L362.734,623.672L362.734,506.563Z" style="fill:rgb(51,62,72);fill-rule:nonzero;"/>
    </g>
    <g transform="matrix(0.06,0,0,0.06,0,0)">
        <path d="M208.75,656.719L208.75,631.172C208.75,627.109 212.109,623.75 216.172,623.75L374.062,623.75C378.125,623.75 381.484,627.109 381.484,631.172L381.484,656.719L208.75,656.719Z" style="fill:rgb(242,211,131);fill-rule:nonzero;"/>
    </g>
    <g transform="matrix(0.06,0,0,0.06,0,0)">
        <path d="M327.969,506.563C327.969,488.437 313.281,473.75 295.156,473.75C277.031,473.75 262.344,488.437 262.344,506.563L327.969,506.563ZM424.531,334.375C424.531,330.313 421.172,326.953 417.109,326.953L173.203,326.953C169.141,326.953 165.781,330.313 165.781,334.375L165.781,382.578C165.781,386.641 169.141,390 173.203,390L417.031,390C421.094,390 424.453,386.641 424.453,382.578L424.531,334.375Z" style="fill:white;fill-rule:nonzero;"/>
    </g>
    <g transform="matrix(0.06,0,0,0.06,0,0)">
        <path d="M417.109,326.953L173.203,326.953C169.141,326.953 165.781,330.313 165.781,334.375L165.781,356.172C165.781,352.109 169.141,348.75 173.203,348.75L417.031,348.75C421.094,348.75 424.453,352.109 424.453,356.172L424.453,334.375C424.531,330.313 421.172,326.953 417.109,326.953Z" style="fill:none;fill-rule:nonzero;"/>
    </g>
    <g transform="matrix(0.06,0,0,0.06,0,0)">
        <rect x="283.984" y="326.953" width="22.344" height="63.125" style="fill:rgb(51,62,72);fill-rule:nonzero;"/>
    </g>
    <g transform="matrix(0.06,0,0,0.06,0,0)">
        <path d="M176.953,378.906L413.359,378.906L413.359,338.125L176.953,338.125L176.953,378.906ZM417.109,401.25L173.203,401.25C162.969,401.25 154.609,392.891 154.609,382.656L154.609,334.375C154.609,324.141 162.969,315.781 173.203,315.781L417.031,315.781C427.266,315.781 435.625,324.141 435.625,334.375L435.625,382.578C435.703,392.891 427.344,401.25 417.109,401.25Z" style="fill:rgb(214,130,49);fill-rule:nonzero;"/>
    </g>
    <g transform="matrix(0.06,0,0,0.06,0,0)">
        <rect x="112.188" y="222.109" width="384.609" height="53.75" style="fill:none;fill-rule:nonzero;"/>
    </g>
    <g transform="matrix(0.06,0,0,0.06,0,0)">
        <path d="M496.797,204.766C496.797,196.563 490.078,189.844 481.875,189.844L108.437,189.844C100.234,189.844 93.516,196.563 93.516,204.766L93.516,239.531C93.516,247.734 100.234,254.453 108.437,254.453L481.875,254.453C490.078,254.453 496.797,247.734 496.797,239.531L496.797,204.766Z" style="fill:rgb(214,130,49);fill-rule:nonzero;"/>
    </g>
    <g transform="matrix(0.06,0,0,0.06,0,0)">
        <rect x="443.438" y="189.844" width="53.281" height="483.672" style="fill:none;fill-rule:nonzero;"/>
    </g>
    <g transform="matrix(0.06,0,0,0.06,0,0)">
        <rect x="465.078" y="164.375" width="228.516" height="509.063" style="fill:rgb(242,211,131);fill-rule:nonzero;"/>
    </g>
    <g transform="matrix(0.06,0,0,0.06,0,0)">
        <path d="M465.078,428.438L543.672,428.438L543.672,466.25L465.078,466.25L465.078,428.438ZM597.656,589.141L676.25,589.141L676.25,626.953L597.656,626.953L597.656,589.141ZM615.078,323.906L693.672,323.906L693.672,361.719L615.078,361.719L615.078,323.906ZM481.953,247.656L560.547,247.656L560.547,285.469L481.953,285.469L481.953,247.656ZM590.703,176.563L669.297,176.563L669.297,214.375L590.703,214.375L590.703,176.563Z" style="fill:none;fill-rule:nonzero;"/>
    </g>
    <g transform="matrix(0.06,0,0,0.06,0,0)">
        <rect x="465.078" y="164.375" width="228.516" height="34.219" style="fill:none;fill-rule:nonzero;"/>
    </g>
    <g transform="matrix(0.06,0,0,0.06,0,0)">
        <path d="M627.656,271.797C627.656,245.156 606.016,223.516 579.375,223.516C552.734,223.516 531.094,245.156 531.094,271.797L531.094,381.016L627.734,381.016L627.656,271.797Z" style="fill:white;fill-rule:nonzero;"/>
    </g>
    <g transform="matrix(0.06,0,0,0.06,0,0)">
        <path d="M579.375,223.516C552.734,223.516 531.094,245.156 531.094,271.797L531.094,292.422C531.094,265.781 552.734,244.141 579.375,244.141C606.016,244.141 627.656,265.781 627.656,292.422L627.656,271.797C627.656,245.156 606.016,223.516 579.375,223.516Z" style="fill:none;fill-rule:nonzero;"/>
    </g>
    <g transform="matrix(0.06,0,0,0.06,0,0)">
        <rect x="531.094" y="271.797" width="96.641" height="24.063" style="fill:none;fill-rule:nonzero;"/>
    </g>
    <g transform="matrix(0.06,0,0,0.06,0,0)">
        <rect x="531.094" y="315.234" width="96.641" height="22.344" style="fill:rgb(51,62,72);fill-rule:nonzero;"/>
    </g>
    <g transform="matrix(0.06,0,0,0.06,0,0)">
        <path d="M616.484,369.844L542.188,369.844L542.188,282.969L616.484,282.969L616.484,369.844ZM579.375,234.687C595.938,234.687 610,245.625 614.766,260.625L543.906,260.625C548.75,245.625 562.813,234.687 579.375,234.687ZM579.375,212.344C546.563,212.344 519.922,239.062 519.922,271.797L519.922,381.016C519.922,387.188 524.922,392.188 531.094,392.188L627.734,392.188C633.906,392.188 638.906,387.188 638.906,381.016L638.906,271.797C638.828,238.984 612.187,212.344 579.375,212.344Z" style="fill:rgb(214,130,49);fill-rule:nonzero;"/>
    </g>
    <g transform="matrix(0.06,0,0,0.06,0,0)">
        <path d="M627.656,487.266C627.656,460.625 606.016,438.984 579.375,438.984C552.734,438.984 531.094,460.625 531.094,487.266L531.094,596.484L627.734,596.484L627.656,487.266Z" style="fill:white;fill-rule:nonzero;"/>
    </g>
    <g transform="matrix(0.06,0,0,0.06,0,0)">
        <path d="M579.375,438.984C552.734,438.984 531.094,460.625 531.094,487.266L531.094,507.891C531.094,481.25 552.734,459.609 579.375,459.609C606.016,459.609 627.656,481.25 627.656,507.891L627.656,487.266C627.656,460.625 606.016,438.984 579.375,438.984Z" style="fill:none;fill-rule:nonzero;"/>
    </g>
    <g transform="matrix(0.06,0,0,0.06,0,0)">
        <rect x="531.094" y="487.266" width="96.641" height="24.062" style="fill:none;fill-rule:nonzero;"/>
    </g>
    <g transform="matrix(0.06,0,0,0.06,0,0)">
        <rect x="531.094" y="530.703" width="96.641" height="22.344" style="fill:rgb(51,62,72);fill-rule:nonzero;"/>
    </g>
    <g transform="matrix(0.06,0,0,0.06,0,0)">
        <path d="M616.484,585.313L542.188,585.313L542.188,498.438L616.484,498.438L616.484,585.313ZM579.375,450.156C595.938,450.156 610,461.094 614.766,476.094L543.906,476.094C548.75,461.094 562.813,450.156 579.375,450.156ZM579.375,427.813C546.563,427.813 519.922,454.453 519.922,487.266L519.922,596.484C519.922,602.656 524.922,607.656 531.094,607.656L627.734,607.656C633.906,607.656 638.906,602.656 638.906,596.484L638.906,487.266C638.828,454.531 612.187,427.813 579.375,427.813Z" style="fill:rgb(214,130,49);fill-rule:nonzero;"/>
    </g>
    <g transform="matrix(0.06,0,0,0.06,0,0)">
        <path d="M749.063,684.219C749.063,687.5 746.328,690.234 743.047,690.234L56.875,690.234C53.594,690.234 50.859,687.5 50.859,684.219L50.859,662.656C50.859,659.375 53.594,656.641 56.875,656.641L743.047,656.641C746.328,656.641 749.063,659.375 749.063,662.656L749.063,684.219Z" style="fill:rgb(164,169,173);fill-rule:nonzero;"/>
    </g>
    <g transform="matrix(0.06,0,0,0.06,0,0)">
        <path d="M710.781,126.875C710.781,118.672 704.063,111.953 695.859,111.953L462.813,111.953C454.609,111.953 447.891,118.672 447.891,126.875L447.891,161.641C447.891,169.844 454.609,176.563 462.813,176.563L695.859,176.563C704.063,176.563 710.781,169.844 710.781,161.641L710.781,126.875Z" style="fill:rgb(214,130,49);fill-rule:nonzero;"/>
    </g>
    <g transform="matrix(0.06,0,0,0.06,0,0)">
        <path d="M743.047,656.719L432.734,656.719L432.734,690.313L743.047,690.313C746.328,690.313 749.063,687.578 749.063,684.297L749.063,662.734C749.063,659.375 746.328,656.719 743.047,656.719Z" style="fill:rgb(209,211,211);fill-rule:nonzero;"/>
    </g>
</svg>
