<?xml version="1.0" encoding="UTF-8" standalone="no"?>
<!DOCTYPE svg PUBLIC "-//W3C//DTD SVG 1.1//EN" "http://www.w3.org/Graphics/SVG/1.1/DTD/svg11.dtd">
<svg width="100%" height="100%" viewBox="0 0 48 48" version="1.1" xmlns="http://www.w3.org/2000/svg" xmlns:xlink="http://www.w3.org/1999/xlink" xml:space="preserve" xmlns:serif="http://www.serif.com/" style="fill-rule:evenodd;clip-rule:evenodd;stroke-linejoin:round;stroke-miterlimit:2;">
    <g transform="matrix(0.06,0,0,0.06,0,0)">
        <path d="M586.284,527.72L272.239,213.675C264.961,206.397 254.559,204.998 249.008,210.552L199.172,260.387C195.069,264.491 194.647,271.448 198.102,277.969L253.075,381.697C275.195,423.436 268.242,473.759 235.886,506.116C184.634,557.367 130.231,590.791 63.258,619.381C52.647,623.909 42.83,630.703 34.519,639.775C4.342,672.711 5.605,725.136 37.358,758.767C71.945,795.402 128.719,797.03 162.877,762.872C171.252,754.497 177.47,744.764 181.552,734.334C205.02,674.336 232.041,625.883 277.35,580.575L292.989,564.936C325.095,532.83 374.925,525.709 416.527,547.286L522.089,602.033C528.566,605.392 535.433,604.931 539.495,600.87L589.413,550.953C594.961,545.4 593.563,534.998 586.284,527.72ZM97.878,730.827C80.264,730.827 65.984,716.547 65.984,698.933C65.984,681.319 80.264,667.039 97.878,667.039C115.492,667.039 129.772,681.319 129.772,698.933C129.772,716.547 115.492,730.827 97.878,730.827Z" style="fill:rgb(254,169,33);fill-rule:nonzero;"/>
    </g>
    <g transform="matrix(0.06,0,0,0.06,0,0)">
        <path d="M582.908,524.347L275.613,217.052L471.272,21.394C483.013,9.653 502.044,9.653 513.784,21.394L778.567,286.177C790.308,297.917 790.308,316.948 778.567,328.689L582.908,524.347Z" style="fill:rgb(254,206,0);fill-rule:nonzero;"/>
    </g>
    <g transform="matrix(0.06,0,0,0.06,0,0)">
        <path d="M778.566,286.177L745.713,253.323C757.453,265.064 757.453,284.095 745.713,295.836L550.055,491.492L582.908,524.345L778.566,328.688C790.306,316.948 790.306,297.916 778.566,286.177Z" style="fill:rgb(229,169,0);fill-rule:nonzero;"/>
    </g>
    <g transform="matrix(0.06,0,0,0.06,0,0)">
        <path d="M586.284,527.72L272.239,213.675C264.961,206.397 254.559,204.998 249.008,210.552L221.486,238.073L561.888,578.475L589.409,550.953C594.961,545.4 593.561,534.998 586.284,527.72Z" style="fill:rgb(199,197,203);fill-rule:nonzero;"/>
    </g>
    <g transform="matrix(0.06,0,0,0.06,0,0)">
        <path d="M627.061,134.672L477.478,284.256C472.561,289.173 472.561,297.145 477.478,302.059C479.938,304.517 483.161,305.747 486.381,305.747C489.602,305.747 492.825,304.519 495.284,302.059L644.867,152.477L627.061,134.672Z" style="fill:rgb(229,169,0);fill-rule:nonzero;"/>
        <path d="M576.639,84.248L427.056,233.833C422.139,238.75 422.139,246.722 427.056,251.636C429.516,254.094 432.739,255.323 435.959,255.323C439.181,255.323 442.403,254.095 444.862,251.636L594.445,102.053L576.639,84.248Z" style="fill:rgb(229,169,0);fill-rule:nonzero;"/>
        <path d="M727.906,235.517L578.323,385.102C573.406,390.019 573.406,397.991 578.323,402.905C580.783,405.362 584.006,406.592 587.227,406.592C590.447,406.592 593.67,405.364 596.13,402.905L745.713,253.322L727.906,235.517Z" style="fill:rgb(229,169,0);fill-rule:nonzero;"/>
        <path d="M677.484,185.094L527.902,334.678C522.984,339.595 522.984,347.567 527.902,352.481C530.361,354.939 533.584,356.169 536.805,356.169C540.027,356.169 543.248,354.941 545.708,352.481L695.291,202.898L677.484,185.094Z" style="fill:rgb(229,169,0);fill-rule:nonzero;"/>
        <path d="M526.216,33.823L376.633,183.408C371.716,188.325 371.716,196.297 376.633,201.211C379.092,203.669 382.316,204.898 385.536,204.898C388.756,204.898 391.98,203.67 394.439,201.211L544.022,51.628L526.216,33.823Z" style="fill:rgb(229,169,0);fill-rule:nonzero;"/>
    </g>
    <g transform="matrix(0.06,0,0,0.06,0,0)">
        <path d="M586.284,527.72L272.239,213.675L553.43,494.866C560.708,502.144 562.106,512.545 556.553,518.097L517.325,557.325C513.263,561.388 506.395,561.845 499.919,558.488C499.919,558.488 450.175,526.114 400.025,503.859C357.191,484.848 292.234,499.977 260.128,532.081L244.489,547.72C199.181,593.028 172.159,641.481 148.691,701.48C144.609,711.911 138.391,721.644 130.016,730.017C101.975,758.058 58.702,761.963 24.964,742.202C28.384,748.069 32.508,753.638 37.35,758.766C71.938,795.4 128.711,797.028 162.869,762.87C171.244,754.495 177.462,744.763 181.544,734.333C205.012,674.334 232.033,625.881 277.342,580.573L292.981,564.934C325.087,532.828 374.917,525.708 416.519,547.284L522.081,602.031C528.558,605.391 535.425,604.93 539.488,600.87L589.405,550.953C594.961,545.4 593.561,534.998 586.284,527.72Z" style="fill:rgb(229,130,0);fill-rule:nonzero;"/>
    </g>
    <g transform="matrix(0.06,0,0,0.06,0,0)">
        <path d="M556.555,518.098L529.033,545.62L561.886,578.473L589.408,550.952C594.961,545.398 593.561,534.998 586.284,527.72L553.431,494.867C560.709,502.145 562.108,512.545 556.555,518.098Z" style="fill:rgb(174,173,179);fill-rule:nonzero;"/>
    </g>
    <g transform="matrix(0.06,0,0,0.06,0,0)">
        <path d="M600.114,524.945L787.469,337.591C804.095,320.961 804.095,293.905 787.469,277.275L737.545,227.352C732.627,222.434 724.656,222.434 719.741,227.352C714.823,232.269 714.823,240.241 719.741,245.155L769.664,295.078C776.478,301.891 776.478,312.973 769.664,319.786L582.909,506.542L293.419,217.052L480.172,30.297C483.473,26.997 487.859,25.178 492.527,25.178C497.194,25.178 501.581,26.995 504.88,30.295L686.384,211.798C691.303,216.716 699.273,216.716 704.189,211.798C709.106,206.881 709.106,198.909 704.189,193.995L522.686,12.492C514.631,4.436 503.92,0 492.527,0C481.136,0 470.425,4.436 462.367,12.492L275.009,199.855C274.558,199.566 274.103,199.292 273.641,199.025C273.309,198.834 272.981,198.645 272.645,198.466C272.044,198.144 271.434,197.847 270.82,197.561C270.506,197.416 270.197,197.262 269.88,197.128C269.147,196.814 268.403,196.539 267.653,196.28C267.452,196.209 267.253,196.125 267.05,196.059C266.097,195.752 265.134,195.492 264.166,195.277C263.92,195.223 263.672,195.191 263.427,195.144C262.836,195.028 262.247,194.903 261.652,194.825C261.531,194.808 261.411,194.809 261.291,194.797C260.784,194.734 260.277,194.709 259.77,194.675C259.247,194.639 258.725,194.597 258.206,194.589C258.069,194.587 257.93,194.566 257.792,194.566C257.198,194.566 256.612,194.609 256.027,194.648C255.844,194.661 255.659,194.658 255.478,194.673C254.523,194.755 253.58,194.881 252.655,195.062C252.633,195.066 252.614,195.072 252.592,195.078C251.717,195.252 250.861,195.475 250.02,195.733C249.795,195.802 249.578,195.886 249.358,195.961C248.727,196.173 248.106,196.408 247.498,196.67C247.231,196.786 246.972,196.909 246.708,197.033C246.158,197.295 245.619,197.577 245.089,197.881C244.825,198.033 244.563,198.18 244.305,198.341C243.775,198.672 243.262,199.031 242.761,199.402C242.542,199.562 242.317,199.712 242.105,199.881C241.408,200.436 240.734,201.019 240.102,201.652L190.266,251.488C182.27,259.483 180.947,272.495 186.973,283.866L241.947,387.594C261.558,424.597 255.544,468.65 226.978,497.214C202.847,521.345 177.539,541.895 149.612,560.034C143.781,563.822 142.127,571.619 145.912,577.45C149.7,583.281 157.498,584.936 163.328,581.15C192.747,562.041 219.392,540.408 244.781,515.017C281.214,478.584 289.014,422.638 264.192,375.802L209.219,272.073C208.414,270.556 208.331,269.445 208.364,268.994L221.48,255.878L544.078,578.478L530.884,591.672C530.453,591.703 529.364,591.628 527.88,590.858L422.316,536.111C375.714,511.944 320.162,519.95 284.078,556.034L268.439,571.673C226.086,614.025 196.591,661.302 169.819,729.748C166.252,738.87 160.917,747.02 153.967,753.97C140.241,767.697 121.795,775.092 101.955,774.814C80.944,774.512 61.25,765.744 46.505,750.125C19.178,721.183 17.989,676.445 43.795,648.28C50.686,640.758 58.897,634.93 68.195,630.961C87.478,622.73 104.847,614.495 121.294,605.791C127.439,602.538 129.784,594.919 126.533,588.775C123.281,582.63 115.661,580.284 109.517,583.536C93.692,591.911 76.944,599.848 58.311,607.803C45.691,613.192 34.562,621.088 25.233,631.27C-9.444,669.116 -8.141,728.917 28.2,767.408C47.656,788.016 73.723,799.588 101.597,799.988C102.091,799.994 102.578,799.997 103.072,799.997C129.189,799.997 153.539,790.006 171.773,771.77C181.197,762.347 188.428,751.292 193.272,738.917C218.7,673.909 246.506,629.217 286.247,589.475L301.886,573.836C330.175,545.55 373.912,539.367 410.725,558.459L516.289,613.206C527.756,619.152 540.358,617.808 548.394,609.77L598.309,559.853C607.139,551.023 607.659,537.102 600.497,525.539C600.47,525.495 600.439,525.453 600.413,525.409C600.317,525.255 600.216,525.1 600.114,524.945ZM561.886,560.67L239.289,238.075L257.614,219.75C257.65,219.747 257.695,219.747 257.741,219.745L257.836,219.745C257.944,219.747 258.061,219.758 258.18,219.769C258.269,219.778 258.358,219.789 258.456,219.806C258.509,219.814 258.567,219.828 258.623,219.838C258.787,219.87 258.961,219.911 259.148,219.967C259.164,219.972 259.18,219.977 259.195,219.983C259.406,220.047 259.63,220.123 259.864,220.217C259.884,220.225 259.906,220.234 259.927,220.242C260.145,220.331 260.373,220.441 260.606,220.559C260.655,220.584 260.705,220.609 260.755,220.636C260.961,220.747 261.173,220.875 261.388,221.011C261.463,221.059 261.539,221.105 261.616,221.156C261.819,221.292 262.023,221.448 262.231,221.609C262.314,221.675 262.395,221.731 262.478,221.798C262.763,222.033 263.048,222.289 263.336,222.575L577.38,536.619C577.58,536.819 577.747,537.019 577.922,537.216C578.011,537.319 578.117,537.42 578.198,537.522C578.392,537.758 578.556,537.992 578.717,538.225C578.759,538.286 578.812,538.348 578.853,538.409C578.966,538.581 579.055,538.744 579.15,538.909C579.217,539.027 579.3,539.148 579.358,539.261C579.422,539.381 579.466,539.492 579.52,539.608C579.591,539.759 579.672,539.914 579.73,540.058C579.812,540.261 579.873,540.448 579.933,540.636C579.948,540.683 579.972,540.736 579.984,540.784C580.02,540.902 580.037,541.003 580.066,541.114C580.192,541.638 580.236,542.069 580.214,542.338L561.886,560.67Z" style="fill:rgb(26,26,26);fill-rule:nonzero;"/>
        <path d="M53.395,698.933C53.395,723.461 73.35,743.416 97.878,743.416C122.406,743.416 142.361,723.461 142.361,698.933C142.361,674.405 122.406,654.45 97.878,654.45C73.35,654.45 53.395,674.405 53.395,698.933ZM117.183,698.933C117.183,709.577 108.523,718.238 97.878,718.238C87.233,718.238 78.573,709.578 78.573,698.933C78.573,688.287 87.233,679.628 97.878,679.628C108.522,679.628 117.183,688.289 117.183,698.933Z" style="fill:rgb(26,26,26);fill-rule:nonzero;"/>
    </g>
</svg>
