<?xml version="1.0" encoding="UTF-8" standalone="no"?>
<!DOCTYPE svg PUBLIC "-//W3C//DTD SVG 1.1//EN" "http://www.w3.org/Graphics/SVG/1.1/DTD/svg11.dtd">
<svg width="100%" height="100%" viewBox="0 0 800 800" version="1.1" xmlns="http://www.w3.org/2000/svg" xmlns:xlink="http://www.w3.org/1999/xlink" xml:space="preserve" xmlns:serif="http://www.serif.com/" style="fill-rule:evenodd;clip-rule:evenodd;stroke-linejoin:round;stroke-miterlimit:2;">
    <path d="M400,800C179.453,800 0,620.547 0,400C0,179.453 179.453,0 400,0C620.547,0 800,179.453 800,400C800,620.547 620.547,800 400,800ZM400,66.641C216.172,66.641 66.641,216.172 66.641,400C66.641,583.828 216.172,733.359 400,733.359C583.828,733.359 733.359,583.828 733.359,400C733.359,216.172 583.828,66.641 400,66.641Z" style="fill:rgb(194,219,254);fill-rule:nonzero;"/>
    <path d="M533.359,433.359L266.641,433.359C248.203,433.359 233.281,418.438 233.281,400C233.281,381.563 248.203,366.641 266.641,366.641L533.281,366.641C551.719,366.641 566.641,381.563 566.641,400C566.641,418.437 551.719,433.359 533.359,433.359Z" style="fill:rgb(50,81,254);fill-rule:nonzero;"/>
    <path d="M400,566.641C381.563,566.641 366.641,551.719 366.641,533.281L366.641,266.641C366.641,248.203 381.563,233.281 400,233.281C418.437,233.281 433.359,248.203 433.359,266.641L433.359,533.281C433.359,551.719 418.438,566.641 400,566.641Z" style="fill:rgb(50,81,254);fill-rule:nonzero;"/>
</svg>
