<?xml version="1.0" encoding="iso-8859-1"?>
<!-- Uploaded to: SVG Repo, www.svgrepo.com, Generator: SVG Repo Mixer Tools -->
<svg height="800px" width="800px" version="1.1" id="Layer_1" xmlns="http://www.w3.org/2000/svg" xmlns:xlink="http://www.w3.org/1999/xlink" 
	 viewBox="0 0 512.001 512.001" xml:space="preserve">
<path style="fill:#F95428;" d="M436.332,252.148c2.024,1.166,3.905,2.453,5.676,3.861c-1.771,1.397-3.663,2.684-5.676,3.839
	l-52.606,30.374c-14.741,8.515-30.836,12.552-46.721,12.541c7.954,13.751,12.497,29.702,12.497,46.721v60.758
	c0,2.332-0.176,4.598-0.495,6.832c-2.101-0.836-4.158-1.815-6.172-2.981l-52.606-30.384c-14.752-8.504-26.292-20.418-34.224-34.18
	c-7.932,13.762-19.483,25.687-34.224,34.191l-52.617,30.384c-2.002,1.155-4.07,2.156-6.161,2.981
	c-0.341-2.233-0.506-4.51-0.506-6.832l0.011-60.758c-0.011-17.04,4.554-32.992,12.508-46.743
	c-15.885,0.011-31.991-4.015-46.732-12.541l-52.617-30.363c-2.024-1.166-3.905-2.453-5.676-3.85c1.771-1.408,3.663-2.684,5.676-3.85
	l52.617-30.374c14.741-8.515,30.836-12.563,46.721-12.552c-7.954-13.74-12.508-29.702-12.497-46.732v-60.736
	c-0.011-2.321,0.165-4.598,0.495-6.832c2.101,0.814,4.158,1.815,6.172,2.981l52.606,30.363c14.741,8.515,26.292,20.44,34.224,34.191
	c7.932-13.762,19.483-25.676,34.224-34.18l52.606-30.374c2.002-1.166,4.07-2.167,6.161-2.992c0.341,2.233,0.506,4.51,0.506,6.832
	v60.747c0,17.04-4.554,32.992-12.508,46.743c15.885-0.011,31.98,4.015,46.732,12.541L436.332,252.148z"/>
<g>
	<path style="fill:#F7B239;" d="M349.007,417.073c-1.496,10.187-6.26,19.285-13.201,26.226c-8.46,8.46-20.154,13.696-33.058,13.696
		c-25.819,0-46.743,20.924-46.754,46.754c0-12.915-5.225-24.598-13.685-33.069c-8.438-8.438-20.121-13.674-32.992-13.685
		c-23.52-0.033-43.003-17.315-46.314-39.911c2.09-0.825,4.158-1.826,6.161-2.981l52.617-30.384
		c14.741-8.504,26.292-20.429,34.224-34.191c7.932,13.762,19.472,25.676,34.224,34.18l52.606,30.385
		C344.848,415.258,346.905,416.237,349.007,417.073z"/>
	<path style="fill:#F7B239;" d="M128.284,290.211c14.741,8.526,30.847,12.552,46.732,12.541
		c-7.954,13.751-12.519,29.702-12.508,46.743l-0.011,60.758c0,2.321,0.165,4.598,0.506,6.832c-9.56,3.795-19.824,4.213-29.317,1.683
		c-11.54-3.102-21.925-10.616-28.371-21.782c-12.915-22.365-41.506-30.032-63.871-17.117c11.188-6.458,18.68-16.831,21.782-28.382
		c3.091-11.54,1.782-24.257-4.631-35.423c-11.738-20.396-6.502-45.907,11.397-60.065c1.771,1.397,3.652,2.684,5.676,3.85
		L128.284,290.211z"/>
	<path style="fill:#F7B239;" d="M175.005,209.222c-15.885-0.011-31.98,4.037-46.721,12.552l-52.617,30.374
		c-2.013,1.166-3.905,2.442-5.676,3.85c-8.075-6.381-13.553-15.071-16.105-24.543c-3.102-11.551-1.782-24.301,4.675-35.467
		c12.893-22.365,5.247-50.956-17.117-63.86c11.188,6.458,23.916,7.756,35.478,4.664c11.529-3.091,21.903-10.583,28.36-21.727
		c11.782-20.363,36.501-28.591,57.722-20.143c-0.33,2.233-0.506,4.51-0.495,6.832v60.736
		C162.497,179.52,167.052,195.482,175.005,209.222z"/>
	<path style="fill:#F7B239;" d="M348.996,94.912c-2.09,0.825-4.158,1.826-6.161,2.992l-52.606,30.374
		c-14.741,8.504-26.292,20.418-34.224,34.18c-7.932-13.751-19.483-25.676-34.224-34.191l-52.606-30.363
		c-2.013-1.166-4.07-2.167-6.172-2.981c1.485-10.187,6.249-19.285,13.179-26.237c8.46-8.449,20.165-13.685,33.069-13.696
		c25.83,0.011,46.754-20.924,46.754-46.743c0,12.926,5.236,24.598,13.685,33.058c8.438,8.449,20.121,13.674,33.003,13.696
		C326.213,55.022,345.695,72.316,348.996,94.912z"/>
	<path style="fill:#F7B239;" d="M470.556,132.117c-11.188,6.458-18.68,16.831-21.782,28.393
		c-3.091,11.529-1.782,24.268,4.642,35.412c11.738,20.396,6.502,45.918-11.408,60.087c-1.771-1.408-3.652-2.695-5.676-3.861
		l-52.606-30.374c-14.752-8.526-30.847-12.552-46.732-12.541c7.954-13.751,12.508-29.702,12.508-46.743v-60.747
		c0-2.321-0.165-4.598-0.506-6.832c9.56-3.795,19.835-4.224,29.317-1.683c11.551,3.091,21.936,10.605,28.382,21.782
		C419.61,137.375,448.202,145.021,470.556,132.117z"/>
	<path style="fill:#F7B239;" d="M458.114,280.53c3.102,11.551,1.782,24.301-4.664,35.478c-12.915,22.354-5.247,50.945,17.106,63.86
		c-11.188-6.458-23.916-7.756-35.467-4.664c-11.529,3.08-21.903,10.583-28.36,21.727c-11.782,20.363-36.512,28.58-57.722,20.143
		c0.319-2.233,0.495-4.499,0.495-6.832v-60.758c0-17.018-4.543-32.97-12.497-46.721c15.885,0.011,31.98-4.026,46.721-12.541
		l52.606-30.374c2.013-1.155,3.905-2.442,5.676-3.839C450.072,262.367,455.572,271.047,458.114,280.53z"/>
	<path style="fill:#F7B239;" d="M256.005,213.721c23.355,0,42.288,18.933,42.288,42.277c0,23.355-18.933,42.277-42.288,42.277
		c-23.344,0-42.277-18.922-42.277-42.277C213.728,232.654,232.661,213.721,256.005,213.721z"/>
</g>
<path style="fill:#31AF0E;" d="M256.005,176.802c43.74,0,79.207,35.456,79.207,79.196s-35.467,79.196-79.207,79.196
	s-79.196-35.456-79.196-79.196S212.265,176.802,256.005,176.802z M298.292,255.998c0-23.344-18.933-42.276-42.288-42.276
	c-23.344,0-42.277,18.933-42.277,42.276c0,23.355,18.933,42.277,42.277,42.277C279.36,298.274,298.292,279.353,298.292,255.998z"/>
<g>
	<path style="fill:#333333;" d="M474.685,372.728L474.685,372.728c-0.004-0.002-0.007-0.003-0.01-0.005
		c-18.378-10.625-24.694-34.213-14.075-52.593c7.342-12.738,9.29-27.562,5.486-41.744c-2.274-8.451-6.409-16.059-12.1-22.403
		c15.425-17.369,18.513-43.434,6.577-64.175c-5.122-8.89-6.481-19.245-3.825-29.155c2.671-9.945,9.045-18.251,17.947-23.391
		c3.946-2.278,5.298-7.324,3.02-11.27c-2.278-3.947-7.326-5.298-11.27-3.02c-0.012,0.007-0.023,0.013-0.035,0.02
		c-18.38,10.587-41.95,4.266-52.556-14.104c-7.351-12.732-19.214-21.834-33.4-25.624c-8.442-2.262-17.103-2.49-25.473-0.73
		c-7.32-22.05-28.344-37.76-52.269-37.787c-10.276-0.017-19.93-4.021-27.178-11.268c-7.269-7.287-11.274-16.957-11.275-27.227
		c0-4.557-3.695-8.25-8.251-8.25c-4.557,0-8.25,3.694-8.251,8.251l0,0l0,0l0,0c0,10.28-4.003,19.947-11.274,27.217
		c-7.272,7.272-16.938,11.276-27.227,11.276h-0.003c-14.693,0.007-28.506,5.726-38.899,16.113
		c-6.18,6.194-10.702,13.582-13.353,21.692c-22.757-4.684-46.868,5.669-58.855,26.377c-5.15,8.889-13.442,15.245-23.349,17.897
		c-9.947,2.661-20.323,1.297-29.222-3.842c-0.001,0-0.002-0.001-0.003-0.002c-3.945-2.276-8.991-0.924-11.269,3.022
		c-2.277,3.946-0.926,8.991,3.02,11.269c0.01,0.006,0.02,0.011,0.03,0.018c8.891,5.139,15.249,13.431,17.908,23.355
		c2.661,9.933,1.297,20.31-3.84,29.213c-7.353,12.723-9.305,27.545-5.496,41.743c2.275,8.456,6.41,16.069,12.099,22.418
		c-15.422,17.366-18.51,43.425-6.581,64.156c5.117,8.896,6.474,19.262,3.826,29.17c-2.679,9.943-9.052,18.246-17.946,23.381
		c-3.946,2.278-5.298,7.324-3.02,11.27c2.278,3.947,7.326,5.299,11.27,3.02l0.012-0.007c8.903-5.135,19.275-6.499,29.204-3.838
		c9.935,2.661,18.238,9.032,23.379,17.938c7.341,12.716,19.198,21.818,33.397,25.632c4.735,1.264,9.535,1.894,14.314,1.894
		c3.747,0,7.478-0.402,11.154-1.173c7.326,22.043,28.352,37.752,52.282,37.789c10.255,0.009,19.902,4.012,27.16,11.268
		c7.27,7.279,11.276,16.95,11.276,27.233c0,4.557,3.694,8.25,8.251,8.25s8.251-3.693,8.251-8.251
		c0.001-21.236,17.254-38.516,38.509-38.504c14.681,0,28.489-5.719,38.883-16.106c6.183-6.183,10.708-13.567,13.367-21.697
		c22.76,4.684,46.876-5.669,58.861-26.372c5.15-8.889,13.442-15.245,23.347-17.897c9.941-2.657,20.316-1.292,29.214,3.847
		c3.946,2.279,8.991,0.927,11.272-3.018C479.981,380.053,478.63,375.007,474.685,372.728z M362.223,307.798
		c8.929-2.295,17.566-5.775,25.629-10.43l52.609-30.374c0.268-0.155,0.529-0.319,0.794-0.479c4.206,4.533,7.247,10.025,8.895,16.149
		c2.661,9.923,1.296,20.301-3.843,29.215c-7.495,12.972-9.068,27.76-5.588,41.236L362.223,307.798z M294.348,376.566
		c-12.972-7.486-23.759-18.259-31.192-31.156c-0.477-0.827-1.096-1.539-1.801-2.141c28.184-1.71,52.8-16.821,67.549-39.038
		c0.167,0.923,0.476,1.826,0.96,2.663c7.452,12.885,11.389,27.613,11.386,42.593l0.003,54.163L294.348,376.566z M61.854,229.316
		c-2.663-9.931-1.298-20.302,3.85-29.21c7.251-12.566,9.231-27.178,5.618-41.206l78.462,45.294
		c-8.928,2.295-17.564,5.774-25.627,10.429l-52.618,30.379c-0.267,0.154-0.527,0.318-0.791,0.476
		C66.544,240.943,63.503,235.448,61.854,229.316z M217.657,135.416c12.972,7.486,23.76,18.263,31.197,31.166
		c0.479,0.831,1.1,1.543,1.807,2.146c-28.187,1.71-52.805,16.823-67.554,39.042c-0.166-0.927-0.476-1.834-0.963-2.674
		c-7.455-12.892-11.394-27.623-11.391-42.602l0.001-54.156L217.657,135.416z M337.081,294.515c-0.023,0-0.048,0-0.074,0
		c-0.959,0-1.89,0.183-2.767,0.495c5.884-11.753,9.217-24.997,9.217-39.011c0-14.012-3.331-27.254-9.214-39.006
		c0.871,0.309,1.794,0.488,2.748,0.488c0.032,0.001,0.046,0,0.069,0c14.878,0,29.586,3.953,42.537,11.432l46.905,27.085
		l-46.9,27.078C366.638,290.562,351.938,294.515,337.081,294.515z M341.25,108.339l-0.001,54.153
		c0.002,14.977-3.941,29.71-11.399,42.608c-0.481,0.832-0.789,1.729-0.957,2.646c-14.752-22.21-39.368-37.314-67.549-39.019
		c0.707-0.603,1.329-1.317,1.807-2.147c7.43-12.892,18.219-23.668,31.199-31.162L341.25,108.339z M185.058,255.999
		c0-39.121,31.828-70.949,70.949-70.949s70.949,31.828,70.949,70.949s-31.828,70.949-70.949,70.949S185.058,295.12,185.058,255.999z
		 M132.407,228.915c12.962-7.484,27.663-11.438,42.523-11.438c0.023,0,0.047,0,0.072,0c0.964,0,1.897-0.184,2.777-0.498
		c-5.888,11.756-9.222,25.003-9.222,39.021c0,14.005,3.328,27.243,9.207,38.991c-0.872-0.309-1.796-0.49-2.75-0.49
		c-0.021,0.001-0.047,0-0.072,0c-14.877,0-29.584-3.953-42.536-11.433L85.5,255.998L132.407,228.915z M170.75,403.658l0.004-54.168
		c-0.002-14.977,3.941-29.71,11.399-42.608c0.481-0.832,0.789-1.729,0.957-2.646c14.749,22.215,39.365,37.326,67.548,39.036
		c-0.705,0.602-1.323,1.314-1.801,2.141c-7.43,12.893-18.219,23.668-31.2,31.163L170.75,403.658z M446.263,200.041
		c8.476,14.729,6.153,33.278-5.021,45.435c-0.261-0.156-0.518-0.318-0.781-0.47l-52.613-30.381
		c-8.06-4.654-16.699-8.135-25.635-10.428l78.461-45.3C437.063,172.906,439.035,187.496,446.263,200.041z M376.179,101.202
		c9.928,2.653,18.23,9.023,23.375,17.935c7.488,12.971,19.505,21.723,32.909,25.447l-78.462,45.3
		c2.476-8.876,3.749-18.095,3.748-27.392l0.001-60.734c0-0.312-0.011-0.625-0.017-0.937
		C363.781,99.448,370.058,99.562,376.179,101.202z M302.682,63.245c16.987,0.02,31.878,11.3,36.818,27.07
		c-0.264,0.146-0.53,0.287-0.792,0.439l-52.609,30.374c-8.063,4.654-15.395,10.394-21.846,16.98V47.52
		C274.569,57.636,288.189,63.222,302.682,63.245z M209.249,63.245c0.001,0,0.003,0,0.004,0c14.509,0,28.155-5.588,38.497-15.734
		v90.592c-6.453-6.588-13.785-12.329-21.846-16.98l-52.589-30.36c-0.275-0.16-0.554-0.308-0.832-0.462
		c1.825-5.914,5.058-11.295,9.536-15.781C189.291,67.254,198.963,63.25,209.249,63.245z M112.419,119.194
		c8.508-14.698,25.715-21.957,41.85-18.352c-0.004,0.301-0.015,0.605-0.015,0.905l-0.001,60.744
		c-0.002,9.297,1.271,18.516,3.745,27.39l-78.424-45.272C93.501,140.738,105.154,131.736,112.419,119.194z M65.74,311.942
		c-8.473-14.724-6.151-33.266,5.018-45.419c0.261,0.156,0.518,0.319,0.782,0.47l52.615,30.365
		c8.06,4.656,16.699,8.135,25.634,10.429l-78.461,45.3C74.927,339.079,72.956,324.491,65.74,311.942z M135.831,410.798
		c-9.935-2.669-18.236-9.042-23.376-17.944c-7.255-12.567-18.922-21.59-32.883-25.475l78.43-45.281
		c-2.476,8.876-3.749,18.094-3.748,27.391l-0.004,60.749c0,0.312,0.011,0.624,0.017,0.936
		C148.225,412.546,141.947,412.433,135.831,410.798z M209.33,448.747c-16.985-0.026-31.882-11.306-36.828-27.066
		c0.263-0.146,0.528-0.286,0.789-0.437l52.618-30.379c8.061-4.654,15.394-10.394,21.846-16.979l-0.006,90.591
		C237.42,454.348,223.801,448.759,209.33,448.747z M302.755,448.743c-0.003,0-0.008,0-0.012,0
		c-14.977,0.001-28.564,6.031-38.492,15.779l0.005-90.638c6.451,6.585,13.782,12.323,21.84,16.974l52.624,30.388
		c0.263,0.151,0.534,0.294,0.8,0.441c-1.829,5.921-5.066,11.3-9.547,15.782C322.699,444.739,313.034,448.743,302.755,448.743z
		 M399.591,392.799c-8.514,14.706-25.742,21.962-41.852,18.355c0.005-0.304,0.018-0.607,0.018-0.911l-0.004-60.753
		c0.002-9.295-1.27-18.51-3.741-27.38l78.417,45.274C418.503,371.259,406.854,380.26,399.591,392.799z"/>
	<path style="fill:#333333;" d="M256.007,205.468c-27.862,0-50.53,22.667-50.53,50.53c0,27.862,22.667,50.53,50.53,50.53
		s50.53-22.667,50.53-50.53C306.538,228.137,283.87,205.468,256.007,205.468z M256.007,290.028
		c-18.763,0-34.029-15.265-34.029-34.029s15.265-34.029,34.029-34.029s34.029,15.265,34.029,34.029
		C290.036,274.762,274.771,290.028,256.007,290.028z"/>
	<circle style="fill:#333333;" cx="384.208" cy="375.944" r="8.251"/>
	<circle style="fill:#333333;" cx="312.108" cy="356.659" r="8.251"/>
	<circle style="fill:#333333;" cx="297.114" cy="421.73" r="8.251"/>
	<circle style="fill:#333333;" cx="214.893" cy="426.68" r="8.251"/>
	<circle style="fill:#333333;" cx="199.91" cy="356.659" r="8.251"/>
	<circle style="fill:#333333;" cx="134.477" cy="375.955" r="8.251"/>
	<circle style="fill:#333333;" cx="88.251" cy="307.771" r="8.251"/>
	<circle style="fill:#333333;" cx="140.78" cy="257.178" r="8.251"/>
	<circle style="fill:#333333;" cx="91.562" cy="210.028" r="8.251"/>
	<circle style="fill:#333333;" cx="127.81" cy="136.058" r="8.251"/>
	<circle style="fill:#333333;" cx="199.91" cy="155.354" r="8.251"/>
	<circle style="fill:#333333;" cx="214.893" cy="90.272" r="8.251"/>
	<circle style="fill:#333333;" cx="297.114" cy="85.322" r="8.251"/>
	<circle style="fill:#333333;" cx="312.108" cy="155.354" r="8.251"/>
	<circle style="fill:#333333;" cx="377.531" cy="136.058" r="8.251"/>
	<circle style="fill:#333333;" cx="423.757" cy="204.231" r="8.251"/>
	<circle style="fill:#333333;" cx="371.227" cy="254.824" r="8.251"/>
	<circle style="fill:#333333;" cx="420.456" cy="301.974" r="8.251"/>
</g>
</svg>