<?xml version="1.0" encoding="UTF-8" standalone="no"?>
<!DOCTYPE svg PUBLIC "-//W3C//DTD SVG 1.1//EN" "http://www.w3.org/Graphics/SVG/1.1/DTD/svg11.dtd">
<svg width="100%" height="100%" viewBox="0 0 48 48" version="1.1" xmlns="http://www.w3.org/2000/svg" xmlns:xlink="http://www.w3.org/1999/xlink" xml:space="preserve" xmlns:serif="http://www.serif.com/" style="fill-rule:evenodd;clip-rule:evenodd;stroke-linejoin:round;stroke-miterlimit:2;">
    <g transform="matrix(0.06,0,0,0.06,0,0)">
        <path d="M539.66,66.667L260.659,66.667C139.325,66.667 66.992,139 66.992,260.333L66.992,539.333C66.992,660.667 139.325,733 260.659,733L539.66,733C660.993,733 733.327,660.667 733.327,539.333L733.327,260.333C733.327,139 660.993,66.667 539.66,66.667Z" style="fill:rgb(163,163,163);fill-opacity:0.4;fill-rule:nonzero;"/>
    </g>
    <g transform="matrix(0.06,0,0,0.06,0,0)">
        <path d="M358.32,471.66L441.987,471.66C458.32,471.66 471.987,458.327 471.987,441.66L471.987,357.993C471.987,341.66 458.653,327.995 441.987,327.995L358.32,327.995C341.987,327.995 328.32,341.327 328.32,357.993L328.32,441.66C328.32,458.327 341.653,471.66 358.32,471.66Z" style="fill:white;fill-rule:nonzero;"/>
    </g>
    <g transform="matrix(0.06,0,0,0.06,0,0)">
        <path d="M260,599.997C293,599.997 319.999,572.997 319.999,539.997L319.999,513.33C319.999,494.997 304.999,479.997 286.666,479.997L260,479.997C227,479.997 200,506.997 200,539.997C200,572.997 227,599.997 260,599.997Z" style="fill:white;fill-rule:nonzero;"/>
    </g>
    <g transform="matrix(0.06,0,0,0.06,0,0)">
        <path d="M260,320L286.666,320C304.999,320 319.999,305 319.999,286.667L319.999,260C319.999,227 293,200 260,200C227,200 200,227 200,260C200,293 227,320 260,320Z" style="fill:white;fill-rule:nonzero;"/>
    </g>
    <g transform="matrix(0.06,0,0,0.06,0,0)">
        <path d="M513.347,320L540.013,320C573.013,320 600.013,293 600.013,260C600.013,227 573.013,200 540.013,200C507.013,200 480.013,227 480.013,260L480.013,286.667C480.013,305 495.013,320 513.347,320Z" style="fill:white;fill-rule:nonzero;"/>
    </g>
    <g transform="matrix(0.06,0,0,0.06,0,0)">
        <path d="M540.013,599.997C573.013,599.997 600.013,572.997 600.013,539.997C600.013,506.997 573.013,479.997 540.013,479.997L513.347,479.997C495.013,479.997 480.013,494.997 480.013,513.33L480.013,539.997C480.013,572.997 507.013,599.997 540.013,599.997Z" style="fill:white;fill-rule:nonzero;"/>
    </g>
</svg>
